<svg width="34" height="34" viewBox="0 0 34 34" fill="none" xmlns="http://www.w3.org/2000/svg">
<path fill-rule="evenodd" clip-rule="evenodd" d="M18.7929 18.2639C17.361 19.6958 15.0394 19.6958 13.6075 18.2639C12.1755 16.832 12.1755 14.5104 13.6075 13.0784C15.0394 11.6465 17.361 11.6465 18.7929 13.0784C20.2248 14.5104 20.2248 16.832 18.7929 18.2639ZM19.2333 19.6469C17.2731 21.1462 14.4575 20.9995 12.6647 19.2067C10.712 17.2541 10.712 14.0883 12.6647 12.1356C14.6173 10.183 17.7831 10.183 19.7357 12.1356C21.5285 13.9284 21.6753 16.7438 20.1761 18.704L23.7428 22.2707L22.8 23.2135L19.2333 19.6469Z" fill="#959595"/>
</svg>
